# xmcd
#
# Track frame offsets:
#	150
#	37119
#	48071
#	58689
#	68361
#	110100
#	134207
#	149018
#	161519
#
# Disc length: 2821 seconds
#
# Revision: 6
# Processed by: cddbd v1.5.2PL0 Copyright (c) Steve Scherf et al.
# Submitted via: EZCDAudioConverter 1.3.4.1
#
DISCID=880b0309
DTITLE=Robert Wyatt - The End Of An Ear
DYEAR=1970
DGENRE=
TTITLE0=Las Vegas Tango - Part 1 (Repeat)
TTITLE1=To Mark Everywhere
TTITLE2=To Saintly Bridget
TTITLE3=To Oz Alien Daevid And Gilly
TTITLE4=To Nick Everyone
TTITLE5=To Caravan And Brother Jim
TTITLE6=To The Old World (Thank You For The Use Of Your Body)
TTITLE7=To Carla, Marsha And Caroline (For Making Everything Beautifuller)
TTITLE8=Las Vegas Tango - Part 1
EXTD=
EXTT0=
EXTT1=
EXTT2=
EXTT3=
EXTT4=
EXTT5=
EXTT6=
EXTT7=
EXTT8=
PLAYORDER=
